<svg xmlns="http://www.w3.org/2000/svg" viewBox="0 0 446.51 78.49"><defs><style>.a{fill:#de603a;}.b{fill:none;stroke:#de603a;stroke-miterlimit:10;stroke-width:1.3px;}.c{fill:#f2ede4;}</style></defs><title>textlogo</title><path class="a" d="M25.44,34h1.27l3.43-17.19H42.83L35.55,53.26H22.85L17.42,36.07H16.15L12.7,53.26H0L7.29,16.85H20Z" transform="translate(0 -1.83)"/><path class="a" d="M55.09,47l-3.18,6.27H37.19L58.94,16.85H99.52L97.69,26h-17l-.94,4.75H96.24l-1.72,8.63H78.06l-1,4.75H94.57l-2.34,9.14H63.85L65.11,47Zm11.75-8.63L69.3,26l-3.65,0L59.43,38.36Z" transform="translate(0 -1.83)"/><path class="a" d="M118,41l10.54-24.15h14.73L124.08,53.26H105.8l-4.64-36.41h14.22L116.26,41Z" transform="translate(0 -1.83)"/><path class="a" d="M175.23,16.85,173.41,26h-17l-.94,4.75H172l-1.73,8.63H153.78l-1,4.75h17.47L168,53.26H138.29l7.29-36.41Z" transform="translate(0 -1.83)"/><path class="a" d="M193.35,41.15h-4.82l-2.44,12.11h-12.7l7.29-36.41h17.78q15,0,15,8.71a12.19,12.19,0,0,1-.25,2.41q-1.38,6.86-11,9L202,38.28q4.69.48,5.64,4.11l2.86,10.87H195.38Zm-1.9-14.65-1.35,6.78h5.08c2.71,0,4.29-1.14,4.75-3.4A4.25,4.25,0,0,0,200,29c0-1.66-1.17-2.49-3.5-2.49Z" transform="translate(0 -1.83)"/><path class="a" d="M213,53.26l7.29-36.41H233l-5.1,25.49h14.68l-2.7,10.92Z" transform="translate(0 -1.83)"/><path class="a" d="M257.59,47,255,53.26H240.22l19.22-36.41h18.29l4.64,36.41H268.15l-.1-6.27Zm10.28-8.63-.22-11h-1.78l-4.65,11Z" transform="translate(0 -1.83)"/><path class="a" d="M310.09,34h1.27l3.42-17.19h12.7l-7.29,36.41H307.5l-5.44-17.19h-1.27l-3.45,17.19h-12.7l7.29-36.41h12.7Z" transform="translate(0 -1.83)"/><path class="a" d="M350.57,16.85q16,0,16,12.85a27.56,27.56,0,0,1-.59,5.36q-3.64,18.19-22.69,18.2h-17l7.29-36.41Zm2.72,18.21a13.7,13.7,0,0,0,.28-2.62c0-3.28-1.71-4.93-5.13-4.93h-4.32l-3,15.09h4.32Q351.77,42.6,353.29,35.06Z" transform="translate(0 -1.83)"/><path class="a" d="M374.78,7.51H387.4l-2.28,11.42-4.4,9.35h-5.05l1.88-9.35H372.5Z" transform="translate(0 -1.83)"/><path class="a" d="M410.11,16.85l-7.28,36.41h-12.7l5.21-26h-7.85l1.58-7.87L400,16.85Z" transform="translate(0 -1.83)"/><path class="a" d="M431.46,16.6q15,0,15.05,12.74a29.84,29.84,0,0,1-.61,5.72q-3.75,18.7-24.45,18.71A48,48,0,0,1,409,52.25l2-10.16a43.65,43.65,0,0,0,11.65,1.78q7.74-.25,10.08-4.24l.53-2.67A22.2,22.2,0,0,1,422.7,39.5q-11.13,0-11.13-7.8a13.86,13.86,0,0,1,.31-2.74Q414.34,16.6,431.46,16.6Zm2.58,16a10.29,10.29,0,0,0,.23-2.11q0-4.44-5.07-4.44t-5.9,3.37a4.15,4.15,0,0,0-.05.59c0,1.72,1.75,2.59,5.23,2.59Z" transform="translate(0 -1.83)"/><path class="b" d="M117.34,59.52q8.1,0,8.11,6.86a16.11,16.11,0,0,1-.33,3.08q-2,10.08-13.17,10.07a25.54,25.54,0,0,1-6.71-.82l1.09-5.46a23.73,23.73,0,0,0,6.28,1q4.17-.14,5.43-2.28l.28-1.44a11.94,11.94,0,0,1-5.7,1.37q-6,0-6-4.2a7.3,7.3,0,0,1,.17-1.47Q108.12,59.52,117.34,59.52Zm1.39,8.6a6,6,0,0,0,.13-1.14c0-1.59-.92-2.39-2.74-2.39s-2.92.61-3.17,1.82a1.71,1.71,0,0,0,0,.31c0,.93.94,1.4,2.82,1.4Z" transform="translate(0 -1.83)"/><path class="b" d="M126.9,73.11h6.8l-1.23,6.15h-6.8Z" transform="translate(0 -1.83)"/><path class="b" d="M152.5,74.63l-.93,4.63h-4.79l.93-4.63h-4.62l1-4.79h4.62l.93-4.62h4.78l-.93,4.62h4.64l-1,4.79Z" transform="translate(0 -1.83)"/><path class="b" d="M179.24,59.65l-3.92,19.61h-6.84l2.8-14h-4.22l.85-4.24,5.86-1.37Z" transform="translate(0 -1.83)"/><path class="b" d="M192.23,59.24q8.69,0,8.69,7.14a15.94,15.94,0,0,1-.33,3.08q-2.06,10.22-12.44,10.21-8.68,0-8.69-7.12a15.48,15.48,0,0,1,.35-3.09Q181.83,59.25,192.23,59.24Zm1.25,10.22a9.66,9.66,0,0,0,.2-1.89c0-1.9-.84-2.86-2.54-2.86q-3.28,0-4.22,4.75a9.17,9.17,0,0,0-.21,1.83c0,1.87.84,2.84,2.53,2.91Q192.53,74.2,193.48,69.46Z" transform="translate(0 -1.83)"/><path class="b" d="M202.65,73.11h6.79l-1.23,6.15h-6.79Z" transform="translate(0 -1.83)"/><path class="b" d="M225.62,75.88l-1.43,3.38h-7.93l10.35-19.61h9.85L239,79.26H231.3l-.05-3.38Zm5.53-4.64L231,65.3h-1l-2.5,5.94Z" transform="translate(0 -1.83)"/><path class="b" d="M253.16,70.14l2.09-10.49h6.83L260,70.14q-1.9,9.52-11.48,9.53-8,0-8-6.62a15,15,0,0,1,.31-2.91l2.09-10.49h6.84l-2.09,10.49a6.26,6.26,0,0,0-.14,1.22,1.92,1.92,0,0,0,2.19,2.16Q252.47,73.52,253.16,70.14Z" transform="translate(0 -1.83)"/><path class="b" d="M271.5,79.53q-9.57,0-9.57-7.24a14,14,0,0,1,.31-2.83q2-10.08,14.25-10.08a28.47,28.47,0,0,1,6.08.68l-1.23,6.16a31.51,31.51,0,0,0-5.43-.55q-5.94,0-6.75,4.06a6,6,0,0,0-.12,1.15q0,3,4.19,3.05l.92-4.57h6.56l-1.87,9.35A34.54,34.54,0,0,1,271.5,79.53Z" transform="translate(0 -1.83)"/><path class="b" d="M295.53,70.14l2.09-10.49h6.83l-2.09,10.49q-1.91,9.52-11.48,9.53-8,0-8-6.62a15,15,0,0,1,.31-2.91l2.09-10.49h6.84l-2.09,10.49a6.26,6.26,0,0,0-.14,1.22,1.92,1.92,0,0,0,2.19,2.16Q294.84,73.52,295.53,70.14Z" transform="translate(0 -1.83)"/><path class="b" d="M314.85,72l-2.62-.32q-7-.81-7-4.92a5.67,5.67,0,0,1,.13-1.12q1.25-6.25,11.7-6.25a27.37,27.37,0,0,1,6.78.82l-1.12,5.61a26.32,26.32,0,0,0-10-.59l-.31,1.57,2.62.3q6.94.82,6.95,5a6.22,6.22,0,0,1-.12,1.18q-1.26,6.24-11.71,6.24a26.94,26.94,0,0,1-6.66-.82l1.13-5.6a24.75,24.75,0,0,0,6.11.82,23.41,23.41,0,0,0,3.77-.23Z" transform="translate(0 -1.83)"/><path class="b" d="M337,65.67l-2.72,13.59h-6.84l2.72-13.59H324l1.48-6H344l-.93,6Z" transform="translate(0 -1.83)"/><path class="c" d="M15.13,7.1l1-5.07h3.3l-1,5.07q-.93,4.61-5.55,4.61Q9,11.71,9,8.51A7.37,7.37,0,0,1,9.18,7.1l1-5.07h3.3l-1,5.07a3.19,3.19,0,0,0-.06.59.93.93,0,0,0,1.05,1C14.35,8.73,14.91,8.19,15.13,7.1Z" transform="translate(0 -1.83)"/><path class="c" d="M25.82,6.5h.33L27,2h3.31l-1.9,9.48h-3.3L23.73,7H23.4l-.9,4.48H19.2L21.09,2H24.4Z" transform="translate(0 -1.83)"/><path class="c" d="M35.1,11.64c-3.08,0-4.63-1.17-4.63-3.5a6.28,6.28,0,0,1,.16-1.37c.64-3.25,2.94-4.87,6.88-4.87a13.52,13.52,0,0,1,2.94.33l-.59,3a16.14,16.14,0,0,0-2.63-.26c-1.91,0-3,.65-3.26,2a2.81,2.81,0,0,0-.06.56c0,1,.68,1.47,2,1.47l.44-2.21h3.17l-.9,4.52A16.51,16.51,0,0,1,35.1,11.64Z" transform="translate(0 -1.83)"/><path class="c" d="M46.41,2q4.16,0,4.16,3.34a7.27,7.27,0,0,1-.15,1.4q-.95,4.74-5.91,4.74H40.08L42,2Zm.71,4.74a4.48,4.48,0,0,0,.07-.68c0-.86-.45-1.29-1.34-1.29H44.73l-.79,3.93h1.13C46.17,8.73,46.85,8.08,47.12,6.77Z" transform="translate(0 -1.83)"/><path class="c" d="M57.45,1.83C60.47,1.83,62,3,62,5.35a7.38,7.38,0,0,1-.15,1.42q-1,4.94-6.34,4.94c-3,0-4.52-1.18-4.52-3.52a7.47,7.47,0,0,1,.15-1.42Q52.1,1.84,57.45,1.83Zm.93,4.94a3.56,3.56,0,0,0,.08-.68c0-1-.53-1.42-1.58-1.42a2.24,2.24,0,0,0-2.33,2.1,3.14,3.14,0,0,0-.07.65c0,.93.52,1.41,1.57,1.44A2.24,2.24,0,0,0,58.38,6.77Z" transform="translate(0 -1.83)"/><path class="c" d="M66.56,5.71h-.3L65,11.51H62L64.19,2h4.29l.57,6.44h.26L72.45,2h4.3l-1.57,9.48h-3l1.06-5.8h-.29l-2.82,5.8h-3Z" transform="translate(0 -1.83)"/><path class="c" d="M82.17,8,80.9,7.84c-2.24-.26-3.37-1-3.37-2.38a2.62,2.62,0,0,1,.06-.54c.4-2,2.29-3,5.66-3a13.58,13.58,0,0,1,3.28.39L86,5a12.52,12.52,0,0,0-3-.39,11.82,11.82,0,0,0-1.82.11L81,5.48l1.27.14c2.23.27,3.35,1.08,3.35,2.43a2.91,2.91,0,0,1-.06.57c-.4,2-2.29,3-5.65,3a12.74,12.74,0,0,1-3.22-.4l.54-2.71a11.78,11.78,0,0,0,3,.4A11.82,11.82,0,0,0,82,8.82Z" transform="translate(0 -1.83)"/><path class="c" d="M91.35,9H90l-.51,2.56H86.2L88.1,2h4.63q3.84,0,3.84,2.55a4.3,4.3,0,0,1-.09.84Q95.78,8.95,91.35,9ZM90.9,4.54l-.41,2.1h1.32a1.2,1.2,0,0,0,1.27-1.09,1,1,0,0,0,0-.29c0-.48-.3-.72-.89-.72Z" transform="translate(0 -1.83)"/><path class="c" d="M101.51,8.35h-1.25l-.64,3.16h-3.3L98.21,2h4.63c2.61,0,3.92.75,3.92,2.27a2.81,2.81,0,0,1-.07.62c-.23,1.19-1.19,2-2.87,2.36l-.07.33a1.47,1.47,0,0,1,1.47,1.07l.75,2.83H102ZM101,4.54l-.35,1.77H102a1.09,1.09,0,0,0,1.23-.89,1,1,0,0,0,0-.23c0-.43-.3-.65-.91-.65Z" transform="translate(0 -1.83)"/><path class="c" d="M113.55,1.83c3,0,4.52,1.17,4.52,3.52a7.38,7.38,0,0,1-.15,1.42q-1,4.94-6.34,4.94c-3,0-4.52-1.18-4.52-3.52a6.79,6.79,0,0,1,.16-1.42Q108.2,1.84,113.55,1.83Zm.94,4.94a4.48,4.48,0,0,0,.07-.68c0-1-.53-1.42-1.57-1.42a2.24,2.24,0,0,0-2.34,2.1,3.14,3.14,0,0,0-.07.65c0,.93.52,1.41,1.57,1.44A2.26,2.26,0,0,0,114.49,6.77Z" transform="translate(0 -1.83)"/><path class="c" d="M118,11.31l.59-3a9.51,9.51,0,0,0,2.49.33c1.38,0,2.16-.45,2.34-1.36l.47-2.36h-4.69L120,2h7.86l-1,5.27c-.59,2.89-2.6,4.34-6.06,4.34A11.87,11.87,0,0,1,118,11.31Z" transform="translate(0 -1.83)"/><path class="c" d="M137.12,2l-.47,2.38h-4.42L132,5.64h4.28l-.45,2.25h-4.28l-.25,1.24h4.54l-.6,2.38h-7.72L129.4,2Z" transform="translate(0 -1.83)"/><path class="c" d="M142.69,5.44l2-3.41h3.9l-2.23,2.91a5.42,5.42,0,0,1-2,1.57l-.07.31a2,2,0,0,1,1.44,1.41l1,3.28h-3.9l-.67-3.23h-1.39l-.65,3.23h-3.3L138.68,2H142l-.68,3.41Z" transform="translate(0 -1.83)"/><path class="c" d="M154.22,4.94l-1.32,6.57h-3.3l1.31-6.57h-3L148.66,2h9l-.45,2.91Z" transform="translate(0 -1.83)"/><path class="c" d="M164,5.44,164.63,2h3.31L166,11.51h-3.31l.65-3.23h-2.64l-.65,3.23h-3.3L158.68,2H162l-.68,3.41Z" transform="translate(0 -1.83)"/><path class="c" d="M174.53,7.1l1-5.07h3.3l-1,5.07q-.93,4.61-5.55,4.61-3.85,0-3.85-3.2a7.37,7.37,0,0,1,.15-1.41l1-5.07h3.3l-1,5.07a3.19,3.19,0,0,0-.06.59.93.93,0,0,0,1.05,1C173.75,8.73,174.31,8.19,174.53,7.1Z" transform="translate(0 -1.83)"/><path class="c" d="M184,8l-1.27-.15c-2.24-.26-3.37-1-3.37-2.38a2.62,2.62,0,0,1,.06-.54c.4-2,2.29-3,5.66-3a13.52,13.52,0,0,1,3.28.39L187.82,5a12.52,12.52,0,0,0-3-.39,11.91,11.91,0,0,0-1.82.11l-.15.76,1.27.14c2.23.27,3.35,1.08,3.35,2.43a2.91,2.91,0,0,1-.06.57c-.4,2-2.29,3-5.65,3a12.8,12.8,0,0,1-3.22-.4l.54-2.71a11.78,11.78,0,0,0,2.95.4,11.73,11.73,0,0,0,1.83-.11Z" transform="translate(0 -1.83)"/><path class="c" d="M197.65,2l-.47,2.38h-4.42l-.24,1.23h4.28l-.45,2.25h-4.28l-.25,1.24h4.54l-.6,2.38H188L189.93,2Z" transform="translate(0 -1.83)"/><path class="c" d="M204.1,4.94l-1.31,6.57h-3.31l1.32-6.57h-3L198.54,2h9l-.45,2.91Z" transform="translate(0 -1.83)"/><path class="c" d="M209.82,11.31l.6-3a9.46,9.46,0,0,0,2.49.33c1.37,0,2.15-.45,2.34-1.36l.47-2.36H211L211.74,2h7.86l-1,5.27q-.87,4.33-6.05,4.34A12,12,0,0,1,209.82,11.31Z" transform="translate(0 -1.83)"/><path class="c" d="M219.29,11.51,221.19,2h4.62q4,0,4,2a2.8,2.8,0,0,1-.05.48,2.81,2.81,0,0,1-2.23,2l-.07.33c1.11.26,1.66.79,1.66,1.57a1.87,1.87,0,0,1,0,.4q-.52,2.64-5.15,2.64Zm4.06-3.75-.3,1.5h1.32q1.24,0,1.41-.75c0-.06,0-.11,0-.16,0-.39-.37-.59-1.12-.59ZM224,4.28l-.29,1.5h1.32c.7,0,1.11-.25,1.21-.76a1.11,1.11,0,0,0,0-.17q0-.57-.93-.57Z" transform="translate(0 -1.83)"/><path class="c" d="M236.18,2l-1.89,9.48H231l1.36-6.77h-2l.41-2.05L233.54,2Z" transform="translate(0 -1.83)"/><path class="c" d="M242.6,1.83q4.2,0,4.2,3.45a7.5,7.5,0,0,1-.16,1.49q-1,4.94-6,4.94-4.2,0-4.2-3.45a7.56,7.56,0,0,1,.17-1.49Q237.58,1.84,242.6,1.83Zm.61,4.94a5.36,5.36,0,0,0,.09-.91c0-.92-.41-1.39-1.23-1.39-1,0-1.73.77-2,2.3a5,5,0,0,0-.1.88q0,1.37,1.23,1.41C242.21,9.06,242.9,8.3,243.21,6.77Z" transform="translate(0 -1.83)"/><path class="c" d="M255.49,9h-1.32l-.52,2.56h-3.3L252.25,2h4.62q3.84,0,3.84,2.55a5.16,5.16,0,0,1-.08.84C260.16,7.77,258.44,9,255.49,9Zm-.44-4.41-.42,2.1H256a1.2,1.2,0,0,0,1.28-1.09,1.5,1.5,0,0,0,0-.29c0-.48-.3-.72-.89-.72Z" transform="translate(0 -1.83)"/><path class="c" d="M265.66,8.35H264.4l-.63,3.16h-3.31L262.36,2H267c2.62,0,3.92.75,3.92,2.27a3.5,3.5,0,0,1-.06.62c-.24,1.19-1.2,2-2.88,2.36l-.06.33a1.47,1.47,0,0,1,1.46,1.07l.75,2.83h-3.93Zm-.5-3.81-.35,1.77h1.32a1.09,1.09,0,0,0,1.24-.89.93.93,0,0,0,0-.23c0-.43-.3-.65-.91-.65Z" transform="translate(0 -1.83)"/><path class="c" d="M274.41,9.87l-.83,1.64h-3.83L275.41,2H286l-.47,2.38h-4.42l-.24,1.23h4.28l-.45,2.25h-4.28l-.25,1.24h4.55l-.61,2.38h-7.39L277,9.87Zm3.06-2.24.64-3.23h-.95l-1.62,3.22Z" transform="translate(0 -1.83)"/><path class="c" d="M291,8l-1.27-.15c-2.25-.26-3.37-1-3.37-2.38a2.62,2.62,0,0,1,.06-.54c.4-2,2.28-3,5.65-3a13.52,13.52,0,0,1,3.28.39L294.85,5a12.44,12.44,0,0,0-3-.39,12,12,0,0,0-1.83.11l-.15.76,1.27.14q3.36.4,3.36,2.43a2.91,2.91,0,0,1-.06.57c-.41,2-2.29,3-5.66,3a12.8,12.8,0,0,1-3.22-.4l.54-2.71a11.85,11.85,0,0,0,3,.4,11.59,11.59,0,0,0,1.82-.11Z" transform="translate(0 -1.83)"/><path class="c" d="M304.69,2l-.48,2.38h-4.42l-.24,1.23h4.28l-.45,2.25H299.1l-.25,1.24h4.55l-.61,2.38h-7.72L297,2Z" transform="translate(0 -1.83)"/><path class="c" d="M311,6.5h.33l.9-4.47h3.3l-1.89,9.48h-3.31L308.88,7h-.33l-.9,4.48h-3.31L306.24,2h3.3Z" transform="translate(0 -1.83)"/><path class="c" d="M322.11,4.94l-1.32,6.57h-3.3l1.31-6.57h-3L316.55,2h9l-.45,2.91Z" transform="translate(0 -1.83)"/><path class="c" d="M334.3,2l-.48,2.38H329.4l-.24,1.23h4.28L333,7.89h-4.28l-.25,1.24H333l-.61,2.38h-7.72L326.58,2Z" transform="translate(0 -1.83)"/><path class="c" d="M339.15,8.35h-1.26l-.63,3.16H334L335.85,2h4.62c2.62,0,3.92.75,3.92,2.27a3.5,3.5,0,0,1-.06.62c-.24,1.19-1.2,2-2.88,2.36l-.06.33a1.47,1.47,0,0,1,1.46,1.07l.75,2.83h-3.93Zm-.5-3.81-.35,1.77h1.32a1.09,1.09,0,0,0,1.24-.89.93.93,0,0,0,0-.23c0-.43-.3-.65-.91-.65Z" transform="translate(0 -1.83)"/><path class="c" d="M354,2l-.47,2.38h-4.42l-.24,1.23h4.28l-.45,2.25h-4.28l-.25,1.24h4.54l-.61,2.38h-7.72L346.29,2Z" transform="translate(0 -1.83)"/><path class="c" d="M358.86,8.35h-1.25L357,11.51h-3.3L355.57,2h4.62c2.61,0,3.92.75,3.92,2.27a2.81,2.81,0,0,1-.07.62c-.23,1.19-1.19,2-2.87,2.36l-.07.33a1.47,1.47,0,0,1,1.47,1.07l.75,2.83h-3.93Zm-.49-3.81L358,6.31h1.32a1.1,1.1,0,0,0,1.24-.89,2,2,0,0,0,0-.23c0-.43-.3-.65-.91-.65Z" transform="translate(0 -1.83)"/></svg>
