<svg xmlns="http://www.w3.org/2000/svg" viewBox="0 0 1272.89 1215.66"><defs><style>.a{fill:#593d36;}.b{fill:#de603a;}.c{fill:#261d1d;}</style></defs><title>Asset 5</title><path class="a" d="M1083.25,482.07h93.16l30.93-121H1007.9l12.77-62.86h186l22.86-114.3h-186L1056,121h192.72l24.2-121H735.68L482.26,424.06,567.13,0H399L353.66,227.59H336.85L264.57,0H96.48L0,482.07l72.62,419.2L9.69,1215.66H342.81l22.8-54.15h90.33l.88,54.15H679.66l29.82-148.42h11l46.92,148.42H878l62.93-314.39L969,761.83h55.54l23.39,139.44H963.23l-62.92,314.39H1047.2q164.43,0,196-157.19a237.53,237.53,0,0,0,5-46.26q0-110.94-138.13-110.94h111.4l-33-125.12q-10.82-41.79-64.9-47.35l2.92-14.62Q1237.9,689,1253.68,610.11a142.39,142.39,0,0,0,2.92-27.77Q1256.6,482.08,1083.25,482.07ZM824.43,121l48.41-.33L845.79,257.31H755.87ZM684.59,399H817.37l-16.8,83h-158ZM213.81,254.48h16.81l71.94,227.59h54l-121.32,278H190l-21.88-278ZM381.62,901.27l-117.19,222,.46-1.87H138.17l44.07-220.12H283.09L506.67,515.64,429.49,901.27ZM575.87,1186.5l-36.4-285.23H633Zm224.81-136.8h-11L742.58,901.27h28.35L797.82,796H596.7l11.11-54.66H797.24L817.12,642H627.69l10.82-54.67H833.78l21.05-105.24h23.79l-83.9,419.2h35.56Zm244.86-378.49H987.08l15.49-73.86H1061q40.35,0,40.34,28.65a49.86,49.86,0,0,1-1.17,10.23C1094.94,662.35,1076.72,671.21,1045.54,671.21Z"/><path class="b" d="M414.06,1100.67,120.39,785.75c-18.84-20.2-17-52.52,4.09-72.19l541.59-505L1028,596.59l-541.59,505C465.26,1121.3,432.9,1120.87,414.06,1100.67Z"/><circle class="c" cx="434.91" cy="741.07" r="177.5"/><circle class="b" cx="434.91" cy="741.07" r="147.5"/><circle class="c" cx="433.41" cy="757.57" r="141"/><circle class="b" cx="433.41" cy="757.57" r="49"/><circle class="c" cx="685.91" cy="506.07" r="105.5"/><circle class="b" cx="685.91" cy="506.07" r="87.5"/><circle class="c" cx="685.41" cy="515.57" r="84"/><circle class="b" cx="685.41" cy="515.57" r="29"/><path class="b" d="M1045.57,575.29c35.78-101.75,12.34-216.63-62.14-297.14l-1.4-1.51-1.4-1.49c-75.12-79.92-188.08-111.32-292.08-82.72l-7.4,2L1043,582.53Z"/><rect class="b" x="995.73" y="117.52" width="125.5" height="175.66" transform="translate(486.78 -708.82) rotate(47)"/><circle class="c" cx="1063.41" cy="184.57" r="33"/><circle class="b" cx="1063.91" cy="184.07" r="27.5"/><circle class="c" cx="1062.91" cy="187.07" r="26.5"/><circle class="b" cx="1063.41" cy="187.57" r="9"/><rect class="b" x="985.11" y="243.38" width="22.76" height="39.55" transform="translate(509.35 -645.1) rotate(47)"/><path class="b" d="M840.6,909.48H897l-10.2,51-19.62,41.74H844.57L853,960.51H830.4Z"/><path class="b" d="M998.41,951.21l-32.55,162.63h-56.7L932.4,997.71h-35l7-35.16L953,951.21Z"/><path class="b" d="M1093.72,950.08q67.26,0,67.25,56.93a133.63,133.63,0,0,1-2.72,25.51q-16.79,83.58-109.21,83.58-30.51,0-55.68-6.8l9.07-45.36q28.35,7.93,52.06,7.94,34.58-1.14,45-18.94l2.38-11.91q-21.33,11.34-47.29,11.34-49.66,0-49.67-34.81a60.46,60.46,0,0,1,1.36-12.25Q1017.29,950.08,1093.72,950.08Zm11.57,71.33a48.26,48.26,0,0,0,1-9.41q0-19.85-22.68-19.85-23.25,0-26.31,15.08a16.09,16.09,0,0,0-.23,2.61q0,11.58,23.37,11.57Z"/></svg>
