<svg id="Layer_1" data-name="Layer 1" xmlns="http://www.w3.org/2000/svg" viewBox="0 0 893.25 824.77"><defs><style>.cls-1{isolation:isolate;}.cls-2{fill:#593d36;}.cls-3{fill:#de603a;}.cls-4{fill:#261d1d;}</style></defs><title>Artboard 3</title><g id="Layer_1_copy_2" data-name="Layer 1 copy 2"><g id="Layer_7_copy" data-name="Layer 7 copy"><rect width="893.25" height="824.77"/></g><g id="Layer_2_copy_3" data-name="Layer 2 copy 3"><g class="cls-1"><path class="cls-2" d="M252.22,142.88,194.09,466.74H48l58.14-323.86H-25L6.53-.48H403L383.1,142.88Z"/><path class="cls-2" d="M595.79-.48,511.94,466.74H365.87L449.72-.48Z"/><path class="cls-2" d="M587.9,466.74,671.75-.48H817.82L759.1,326.64H928l-31,140.1Z"/></g></g><g id="Layer_2_copy_3-2" data-name="Layer 2 copy 3"><g class="cls-1"><path class="cls-2" d="M-30.27,829.16,14.91,466.43h110.2q94.94,0,94.93,77.4A140.18,140.18,0,0,1,218.78,562q-6.93,55.66-53.05,78.17l-1.57,12.64q39.51,15.18,39.51,60.21a126.64,126.64,0,0,1-.94,15.17q-12.6,100.93-122.8,100.93ZM66.39,685.74l-7.24,57.42H90.64q29.91,0,33.53-28.84a56.29,56.29,0,0,0,.31-5.82q0-22.75-26.6-22.76ZM82.92,552.43l-7.08,57.42h31.49q25.19,0,28.8-28.83a49.25,49.25,0,0,0,.48-6.58q0-22-22.2-22Z"/><path class="cls-2" d="M299.39,766.68,283,829.16h-91.3L310.88,466.43H424.23L453,829.16H364.88l-.63-62.48Zm63.76-86L361.73,570.9h-11L321.9,680.68Z"/><path class="cls-2" d="M583.86,834.22q-110.21,0-110.2-134.06a416,416,0,0,1,3.62-52.37q23.14-186.42,164-186.42,34.48,0,70.06,12.65L697.21,587.85q-35.9-10.12-62.5-10.12-68.48,0-77.77,75.12a173.59,173.59,0,0,0-1.42,21.25q0,56.42,48.33,56.41L614.4,646H690L668.4,819Q624.63,834.22,583.86,834.22Z"/><path class="cls-2" d="M931.62,466.43l-11.34,91.06H815.12l-5.82,47.3h102l-10.7,86h-102l-6,47.3H900.92l-14.48,91.06H702.56l45.18-362.73Z"/></g></g><path class="cls-3" d="M309.68,732.74,118,534.09C105.75,521.34,107,501,120.7,488.58L474.17,170.1l236.2,244.76L356.91,733.35C343.08,745.76,322,745.49,309.68,732.74Z"/><ellipse class="cls-4" cx="323.29" cy="505.95" rx="115.86" ry="111.97"/><ellipse class="cls-3" cx="323.29" cy="505.95" rx="96.28" ry="93.05"/><ellipse class="cls-4" cx="322.31" cy="516.32" rx="92" ry="88.91"/><ellipse class="cls-3" cx="322.31" cy="516.32" rx="32" ry="30.93"/><ellipse class="cls-4" cx="487.08" cy="357.69" rx="68.84" ry="66.53"/><ellipse class="cls-3" cx="487.08" cy="357.69" rx="57.12" ry="55.21"/><ellipse class="cls-4" cx="486.73" cy="363.73" rx="54.81" ry="52.97"/><ellipse class="cls-3" cx="486.73" cy="363.73" rx="18.95" ry="18.31"/><path class="cls-3" d="M721.81,401.37c23.37-64.16,8.07-136.66-40.56-187.39l-.91-.95-.91-.95c-49-50.39-122.74-70.2-190.6-52.16L484,161.21,720.13,406Z"/><polygon class="cls-3" points="660.46 176.81 744.32 101.23 800.17 159.12 716.31 234.7 660.46 176.81"/><ellipse class="cls-4" cx="733.39" cy="155" rx="21.54" ry="20.82"/><ellipse class="cls-3" cx="733.74" cy="154.63" rx="17.96" ry="17.36"/><ellipse class="cls-4" cx="733.11" cy="156.53" rx="17.26" ry="16.68"/><ellipse class="cls-3" cx="733.39" cy="156.8" rx="5.89" ry="5.7"/><polygon class="cls-3" points="675.29 207.68 694.17 190.66 704.32 201.18 685.43 218.2 675.29 207.68"/></g></svg>